<mxfile host="app.diagrams.net" agent="Mozilla/5.0 (Windows NT 10.0; Win64; x64) AppleWebKit/537.36 (KHTML, like Gecko) Chrome/133.0.0.0 Safari/537.36" version="24.8.3">
  <diagram id="R2lEEEUBdFMjLlhIrx00" name="Page-1">
    <mxGraphModel dx="1105" dy="1727" grid="1" gridSize="10" guides="1" tooltips="1" connect="1" arrows="1" fold="1" page="1" pageScale="1" pageWidth="850" pageHeight="1100" math="0" shadow="0" extFonts="Permanent Marker^https://fonts.googleapis.com/css?family=Permanent+Marker">
      <root>
        <mxCell id="0" />
        <mxCell id="1" parent="0" />
        <mxCell id="jUOpvkWIjggVuMZhnYse-32" style="edgeStyle=orthogonalEdgeStyle;rounded=0;orthogonalLoop=1;jettySize=auto;html=1;entryX=0.5;entryY=0;entryDx=0;entryDy=0;" edge="1" parent="1" source="jUOpvkWIjggVuMZhnYse-1" target="jUOpvkWIjggVuMZhnYse-20">
          <mxGeometry relative="1" as="geometry" />
        </mxCell>
        <mxCell id="jUOpvkWIjggVuMZhnYse-1" value="proyek" style="swimlane;fontStyle=0;childLayout=stackLayout;horizontal=1;startSize=30;horizontalStack=0;resizeParent=1;resizeParentMax=0;resizeLast=0;collapsible=1;marginBottom=0;whiteSpace=wrap;html=1;" vertex="1" parent="1">
          <mxGeometry x="40" y="230" width="140" height="60" as="geometry" />
        </mxCell>
        <mxCell id="jUOpvkWIjggVuMZhnYse-2" value="id" style="text;strokeColor=none;fillColor=none;align=left;verticalAlign=middle;spacingLeft=4;spacingRight=4;overflow=hidden;points=[[0,0.5],[1,0.5]];portConstraint=eastwest;rotatable=0;whiteSpace=wrap;html=1;" vertex="1" parent="jUOpvkWIjggVuMZhnYse-1">
          <mxGeometry y="30" width="140" height="30" as="geometry" />
        </mxCell>
        <mxCell id="jUOpvkWIjggVuMZhnYse-5" value="sosialisasi" style="swimlane;fontStyle=0;childLayout=stackLayout;horizontal=1;startSize=30;horizontalStack=0;resizeParent=1;resizeParentMax=0;resizeLast=0;collapsible=1;marginBottom=0;whiteSpace=wrap;html=1;" vertex="1" parent="1">
          <mxGeometry x="390" y="100" width="140" height="60" as="geometry" />
        </mxCell>
        <mxCell id="jUOpvkWIjggVuMZhnYse-6" value="id" style="text;strokeColor=none;fillColor=none;align=left;verticalAlign=middle;spacingLeft=4;spacingRight=4;overflow=hidden;points=[[0,0.5],[1,0.5]];portConstraint=eastwest;rotatable=0;whiteSpace=wrap;html=1;" vertex="1" parent="jUOpvkWIjggVuMZhnYse-5">
          <mxGeometry y="30" width="140" height="30" as="geometry" />
        </mxCell>
        <mxCell id="jUOpvkWIjggVuMZhnYse-7" value="inventarisasi" style="swimlane;fontStyle=0;childLayout=stackLayout;horizontal=1;startSize=30;horizontalStack=0;resizeParent=1;resizeParentMax=0;resizeLast=0;collapsible=1;marginBottom=0;whiteSpace=wrap;html=1;" vertex="1" parent="1">
          <mxGeometry x="540" y="170" width="140" height="60" as="geometry" />
        </mxCell>
        <mxCell id="jUOpvkWIjggVuMZhnYse-8" value="id" style="text;strokeColor=none;fillColor=none;align=left;verticalAlign=middle;spacingLeft=4;spacingRight=4;overflow=hidden;points=[[0,0.5],[1,0.5]];portConstraint=eastwest;rotatable=0;whiteSpace=wrap;html=1;" vertex="1" parent="jUOpvkWIjggVuMZhnYse-7">
          <mxGeometry y="30" width="140" height="30" as="geometry" />
        </mxCell>
        <mxCell id="jUOpvkWIjggVuMZhnYse-9" value="musyawarah" style="swimlane;fontStyle=0;childLayout=stackLayout;horizontal=1;startSize=30;horizontalStack=0;resizeParent=1;resizeParentMax=0;resizeLast=0;collapsible=1;marginBottom=0;whiteSpace=wrap;html=1;" vertex="1" parent="1">
          <mxGeometry x="540" y="340" width="140" height="60" as="geometry" />
        </mxCell>
        <mxCell id="jUOpvkWIjggVuMZhnYse-10" value="id" style="text;strokeColor=none;fillColor=none;align=left;verticalAlign=middle;spacingLeft=4;spacingRight=4;overflow=hidden;points=[[0,0.5],[1,0.5]];portConstraint=eastwest;rotatable=0;whiteSpace=wrap;html=1;" vertex="1" parent="jUOpvkWIjggVuMZhnYse-9">
          <mxGeometry y="30" width="140" height="30" as="geometry" />
        </mxCell>
        <mxCell id="jUOpvkWIjggVuMZhnYse-11" value="pemberkasan" style="swimlane;fontStyle=0;childLayout=stackLayout;horizontal=1;startSize=30;horizontalStack=0;resizeParent=1;resizeParentMax=0;resizeLast=0;collapsible=1;marginBottom=0;whiteSpace=wrap;html=1;" vertex="1" parent="1">
          <mxGeometry x="390" y="420" width="140" height="60" as="geometry" />
        </mxCell>
        <mxCell id="jUOpvkWIjggVuMZhnYse-12" value="id" style="text;strokeColor=none;fillColor=none;align=left;verticalAlign=middle;spacingLeft=4;spacingRight=4;overflow=hidden;points=[[0,0.5],[1,0.5]];portConstraint=eastwest;rotatable=0;whiteSpace=wrap;html=1;" vertex="1" parent="jUOpvkWIjggVuMZhnYse-11">
          <mxGeometry y="30" width="140" height="30" as="geometry" />
        </mxCell>
        <mxCell id="jUOpvkWIjggVuMZhnYse-14" value="pengumuman" style="swimlane;fontStyle=0;childLayout=stackLayout;horizontal=1;startSize=30;horizontalStack=0;resizeParent=1;resizeParentMax=0;resizeLast=0;collapsible=1;marginBottom=0;whiteSpace=wrap;html=1;" vertex="1" parent="1">
          <mxGeometry x="380" y="260" width="140" height="60" as="geometry" />
        </mxCell>
        <mxCell id="jUOpvkWIjggVuMZhnYse-15" value="id" style="text;strokeColor=none;fillColor=none;align=left;verticalAlign=middle;spacingLeft=4;spacingRight=4;overflow=hidden;points=[[0,0.5],[1,0.5]];portConstraint=eastwest;rotatable=0;whiteSpace=wrap;html=1;" vertex="1" parent="jUOpvkWIjggVuMZhnYse-14">
          <mxGeometry y="30" width="140" height="30" as="geometry" />
        </mxCell>
        <mxCell id="jUOpvkWIjggVuMZhnYse-16" value="identifikasi" style="swimlane;fontStyle=0;childLayout=stackLayout;horizontal=1;startSize=30;horizontalStack=0;resizeParent=1;resizeParentMax=0;resizeLast=0;collapsible=1;marginBottom=0;whiteSpace=wrap;html=1;" vertex="1" parent="1">
          <mxGeometry x="220" y="40" width="140" height="60" as="geometry" />
        </mxCell>
        <mxCell id="jUOpvkWIjggVuMZhnYse-17" value="id" style="text;strokeColor=none;fillColor=none;align=left;verticalAlign=middle;spacingLeft=4;spacingRight=4;overflow=hidden;points=[[0,0.5],[1,0.5]];portConstraint=eastwest;rotatable=0;whiteSpace=wrap;html=1;" vertex="1" parent="jUOpvkWIjggVuMZhnYse-16">
          <mxGeometry y="30" width="140" height="30" as="geometry" />
        </mxCell>
        <mxCell id="jUOpvkWIjggVuMZhnYse-18" value="pembayaran" style="swimlane;fontStyle=0;childLayout=stackLayout;horizontal=1;startSize=30;horizontalStack=0;resizeParent=1;resizeParentMax=0;resizeLast=0;collapsible=1;marginBottom=0;whiteSpace=wrap;html=1;" vertex="1" parent="1">
          <mxGeometry x="250" y="510" width="140" height="60" as="geometry" />
        </mxCell>
        <mxCell id="jUOpvkWIjggVuMZhnYse-19" value="id" style="text;strokeColor=none;fillColor=none;align=left;verticalAlign=middle;spacingLeft=4;spacingRight=4;overflow=hidden;points=[[0,0.5],[1,0.5]];portConstraint=eastwest;rotatable=0;whiteSpace=wrap;html=1;" vertex="1" parent="jUOpvkWIjggVuMZhnYse-18">
          <mxGeometry y="30" width="140" height="30" as="geometry" />
        </mxCell>
        <mxCell id="jUOpvkWIjggVuMZhnYse-20" value="penebangan" style="swimlane;fontStyle=0;childLayout=stackLayout;horizontal=1;startSize=30;horizontalStack=0;resizeParent=1;resizeParentMax=0;resizeLast=0;collapsible=1;marginBottom=0;whiteSpace=wrap;html=1;" vertex="1" parent="1">
          <mxGeometry x="70" y="580" width="140" height="60" as="geometry" />
        </mxCell>
        <mxCell id="jUOpvkWIjggVuMZhnYse-21" value="id" style="text;strokeColor=none;fillColor=none;align=left;verticalAlign=middle;spacingLeft=4;spacingRight=4;overflow=hidden;points=[[0,0.5],[1,0.5]];portConstraint=eastwest;rotatable=0;whiteSpace=wrap;html=1;" vertex="1" parent="jUOpvkWIjggVuMZhnYse-20">
          <mxGeometry y="30" width="140" height="30" as="geometry" />
        </mxCell>
        <mxCell id="jUOpvkWIjggVuMZhnYse-25" style="edgeStyle=orthogonalEdgeStyle;rounded=0;orthogonalLoop=1;jettySize=auto;html=1;entryX=0;entryY=0.25;entryDx=0;entryDy=0;" edge="1" parent="1" source="jUOpvkWIjggVuMZhnYse-2" target="jUOpvkWIjggVuMZhnYse-16">
          <mxGeometry relative="1" as="geometry" />
        </mxCell>
        <mxCell id="jUOpvkWIjggVuMZhnYse-26" style="edgeStyle=orthogonalEdgeStyle;rounded=0;orthogonalLoop=1;jettySize=auto;html=1;entryX=0;entryY=0.25;entryDx=0;entryDy=0;" edge="1" parent="1" source="jUOpvkWIjggVuMZhnYse-2" target="jUOpvkWIjggVuMZhnYse-5">
          <mxGeometry relative="1" as="geometry" />
        </mxCell>
        <mxCell id="jUOpvkWIjggVuMZhnYse-27" style="edgeStyle=orthogonalEdgeStyle;rounded=0;orthogonalLoop=1;jettySize=auto;html=1;exitX=0.5;exitY=0;exitDx=0;exitDy=0;" edge="1" parent="1" source="jUOpvkWIjggVuMZhnYse-1">
          <mxGeometry relative="1" as="geometry">
            <mxPoint x="540" y="200" as="targetPoint" />
            <Array as="points">
              <mxPoint x="110" y="200" />
            </Array>
          </mxGeometry>
        </mxCell>
        <mxCell id="jUOpvkWIjggVuMZhnYse-28" style="edgeStyle=orthogonalEdgeStyle;rounded=0;orthogonalLoop=1;jettySize=auto;html=1;entryX=0;entryY=0.5;entryDx=0;entryDy=0;" edge="1" parent="1" source="jUOpvkWIjggVuMZhnYse-2" target="jUOpvkWIjggVuMZhnYse-15">
          <mxGeometry relative="1" as="geometry" />
        </mxCell>
        <mxCell id="jUOpvkWIjggVuMZhnYse-29" style="edgeStyle=orthogonalEdgeStyle;rounded=0;orthogonalLoop=1;jettySize=auto;html=1;entryX=0;entryY=0.5;entryDx=0;entryDy=0;" edge="1" parent="1" source="jUOpvkWIjggVuMZhnYse-2" target="jUOpvkWIjggVuMZhnYse-10">
          <mxGeometry relative="1" as="geometry" />
        </mxCell>
        <mxCell id="jUOpvkWIjggVuMZhnYse-30" style="edgeStyle=orthogonalEdgeStyle;rounded=0;orthogonalLoop=1;jettySize=auto;html=1;entryX=0.043;entryY=0.112;entryDx=0;entryDy=0;entryPerimeter=0;" edge="1" parent="1" source="jUOpvkWIjggVuMZhnYse-1" target="jUOpvkWIjggVuMZhnYse-12">
          <mxGeometry relative="1" as="geometry" />
        </mxCell>
        <mxCell id="jUOpvkWIjggVuMZhnYse-31" style="edgeStyle=orthogonalEdgeStyle;rounded=0;orthogonalLoop=1;jettySize=auto;html=1;entryX=0.5;entryY=0;entryDx=0;entryDy=0;" edge="1" parent="1" source="jUOpvkWIjggVuMZhnYse-2" target="jUOpvkWIjggVuMZhnYse-18">
          <mxGeometry relative="1" as="geometry" />
        </mxCell>
        <mxCell id="jUOpvkWIjggVuMZhnYse-37" value="" style="edgeStyle=orthogonalEdgeStyle;rounded=0;orthogonalLoop=1;jettySize=auto;html=1;" edge="1" parent="1" source="jUOpvkWIjggVuMZhnYse-33" target="jUOpvkWIjggVuMZhnYse-36">
          <mxGeometry relative="1" as="geometry" />
        </mxCell>
        <mxCell id="jUOpvkWIjggVuMZhnYse-33" value="/identifikasi/[proyekID]?title=tes&amp;amp;category=1" style="text;html=1;align=center;verticalAlign=middle;whiteSpace=wrap;rounded=0;" vertex="1" parent="1">
          <mxGeometry x="390" y="40" width="140" height="30" as="geometry" />
        </mxCell>
        <mxCell id="jUOpvkWIjggVuMZhnYse-36" value="useParams -&amp;gt; client side (use client)" style="text;html=1;align=center;verticalAlign=middle;whiteSpace=wrap;rounded=0;" vertex="1" parent="1">
          <mxGeometry x="610" y="40" width="140" height="30" as="geometry" />
        </mxCell>
        <mxCell id="jUOpvkWIjggVuMZhnYse-40" style="edgeStyle=orthogonalEdgeStyle;rounded=0;orthogonalLoop=1;jettySize=auto;html=1;entryX=0;entryY=0.5;entryDx=0;entryDy=0;" edge="1" parent="1" source="jUOpvkWIjggVuMZhnYse-38" target="jUOpvkWIjggVuMZhnYse-39">
          <mxGeometry relative="1" as="geometry" />
        </mxCell>
        <mxCell id="jUOpvkWIjggVuMZhnYse-38" value="[id] -&amp;gt; [itemId] -&amp;gt; page.jsx" style="text;html=1;align=center;verticalAlign=middle;whiteSpace=wrap;rounded=0;" vertex="1" parent="1">
          <mxGeometry x="550" y="100" width="140" height="30" as="geometry" />
        </mxCell>
        <mxCell id="jUOpvkWIjggVuMZhnYse-39" value="const {id, itemId} = useParams()" style="text;html=1;align=center;verticalAlign=middle;whiteSpace=wrap;rounded=0;" vertex="1" parent="1">
          <mxGeometry x="750" y="100" width="140" height="30" as="geometry" />
        </mxCell>
        <mxCell id="jUOpvkWIjggVuMZhnYse-43" style="edgeStyle=orthogonalEdgeStyle;rounded=0;orthogonalLoop=1;jettySize=auto;html=1;entryX=0;entryY=0.5;entryDx=0;entryDy=0;" edge="1" parent="1" source="jUOpvkWIjggVuMZhnYse-41" target="jUOpvkWIjggVuMZhnYse-42">
          <mxGeometry relative="1" as="geometry" />
        </mxCell>
        <mxCell id="jUOpvkWIjggVuMZhnYse-41" value="[id] -&amp;gt; page.jsx" style="text;html=1;align=center;verticalAlign=middle;whiteSpace=wrap;rounded=0;" vertex="1" parent="1">
          <mxGeometry x="561" y="130" width="109" height="30" as="geometry" />
        </mxCell>
        <mxCell id="jUOpvkWIjggVuMZhnYse-42" value="useParams -&amp;gt; {id}" style="text;html=1;align=center;verticalAlign=middle;whiteSpace=wrap;rounded=0;" vertex="1" parent="1">
          <mxGeometry x="700" y="130" width="140" height="30" as="geometry" />
        </mxCell>
        <mxCell id="jUOpvkWIjggVuMZhnYse-44" value="server side -&amp;gt; kalau ada mau fetch data&lt;div&gt;&lt;br&gt;&lt;div&gt;client side -&amp;gt; untuk pake function bawaan react&lt;/div&gt;&lt;/div&gt;" style="text;html=1;align=center;verticalAlign=middle;whiteSpace=wrap;rounded=0;" vertex="1" parent="1">
          <mxGeometry x="790" y="20" width="140" height="30" as="geometry" />
        </mxCell>
        <mxCell id="jUOpvkWIjggVuMZhnYse-46" value="&#39;use client&#39;&lt;div&gt;&lt;br&gt;&lt;/div&gt;&lt;div&gt;kau import component yang ada async -&amp;gt; otomatis error&lt;/div&gt;&lt;div&gt;&lt;br&gt;&lt;/div&gt;&lt;div&gt;&lt;br&gt;&lt;/div&gt;" style="text;html=1;align=center;verticalAlign=middle;whiteSpace=wrap;rounded=0;" vertex="1" parent="1">
          <mxGeometry x="920" y="120" width="140" height="30" as="geometry" />
        </mxCell>
      </root>
    </mxGraphModel>
  </diagram>
</mxfile>
